<?xml version="1.0" encoding="utf-8"?>
<!DOCTYPE svg PUBLIC "-//W3C//DTD SVG 1.0//EN" "http://www.w3.org/TR/2001/REC-SVG-20010904/DTD/svg10.dtd">
<svg version="1.0" xmlns="http://www.w3.org/2000/svg" width="495px" height="62px" viewBox="0 0 495 62" preserveAspectRatio="xMidYMid meet">
 <g fill="#005792">
  <path d="M358.25 47 c-4.60 -0.65 -7.95 -3 -9.50 -6.60 -1 -2.45 -1 -8 0.05 -10.20 1.10 -2.30 4.25 -5 6.55 -5.65 2.10 -0.60 6.90 -0.70 9.80 -0.25 l1.85 0.35 0 3.45 c0 3.15 -0.10 3.45 -0.85 3.15 -2.30 -0.85 -5.90 -1.20 -7.65 -0.75 -2.70 0.70 -3.75 2.15 -3.75 5 0 4.40 2.80 5.90 8.60 4.70 1.90 -0.40 3.45 -0.70 3.50 -0.70 0.10 0 0.15 1.55 0.15 3.45 l0 3.50 -2.35 0.30 c-1.35 0.20 -2.75 0.40 -3.15 0.45 -0.40 0.10 -1.90 0 -3.25 -0.20z"/>
  <path d="M31.75 46.55 c-5.30 -1.30 -8.35 -5.35 -8.35 -11.05 -0.05 -6.70 4.55 -11.45 11.10 -11.50 1.85 0 3.25 0.30 4.40 1 l1.60 1 0 -5.50 0 -5.50 3.50 0 3.50 0 0 10.90 c0 12.70 -0.40 14.85 -3.35 17.70 -3.05 2.95 -7.75 4.05 -12.40 2.95z m6.50 -6.35 c1.10 -0.45 2.25 -2.85 2.25 -4.70 0 -2.30 -1.30 -4.45 -2.90 -4.80 -0.75 -0.15 -1.60 -0.35 -1.95 -0.45 -0.30 -0.10 -1.40 0.05 -2.40 0.30 -1.40 0.40 -2 0.95 -2.60 2.35 -1.65 4 0.50 7.60 4.60 7.60 1.20 0 2.55 -0.15 3 -0.30z"/>
  <path d="M55.50 45.65 c-4.85 -2.55 -7.10 -8.25 -5.45 -14 0.80 -2.95 4.05 -6.35 6.75 -7.10 3.05 -0.85 8.15 -0.65 10.45 0.40 5.90 2.65 8.10 11 4.45 16.85 -2 3.25 -5.15 4.90 -9.95 5.10 -3.10 0.15 -3.85 0 -6.25 -1.25z m9.45 -5.85 c0.40 -0.30 1 -1.30 1.40 -2.20 0.90 -2.10 0.10 -5.30 -1.60 -6.40 -2.45 -1.60 -6.05 -1.10 -7.45 1.05 -1.10 1.65 -1.05 5.35 0.10 6.75 1.45 1.75 5.75 2.20 7.55 0.80z"/>
  <path d="M81.60 46.25 c-5.85 -2.55 -8.40 -8.35 -6.55 -15 0.70 -2.50 4.20 -6 6.80 -6.70 2.10 -0.60 7.65 -0.70 10.10 -0.25 l1.55 0.35 0 3.45 c0 3.15 -0.10 3.45 -0.85 3.15 -1.40 -0.60 -4.55 -1.15 -5.75 -1 -0.65 0.05 -1.55 0.15 -2.05 0.20 -0.50 0 -1.45 0.60 -2.10 1.30 -1 0.95 -1.25 1.70 -1.25 3.60 0 5.05 2.90 6.25 10.75 4.40 l1.50 -0.35 -0.15 3.50 c-0.20 3.45 -0.20 3.50 -1.70 3.80 -2.70 0.55 -8.60 0.30 -10.30 -0.45z"/>
  <path d="M102.75 45.80 c-5.85 -2.75 -6.75 -5.15 -6.75 -17.85 l0 -9.45 3.50 0 3.50 0 0 3 0 3 2.65 0.05 c1.40 0.05 2.75 0.05 3 0 0.35 -0.05 0.40 0.35 0.45 4.55 l0.05 2.10 -2.95 0.05 -2.95 0 -0.15 2.25 c-0.40 5.20 1.10 7.20 5.20 7.10 l2.20 0 0 3.20 0 3.20 -2.60 0 c-1.75 0 -3.50 -0.40 -5.15 -1.20z"/>
  <path d="M117.50 45.95 c-3.85 -1.75 -5.50 -3.80 -6.50 -8.10 -0.65 -3 0.10 -7 1.80 -9.45 3.80 -5.40 14.15 -6.05 18.80 -1.10 3.95 4.20 4.05 12 0.25 16.15 -3.10 3.35 -9.85 4.55 -14.35 2.50z m7.90 -5.70 c2.75 -0.80 3.35 -6.20 0.95 -8.65 -0.95 -0.90 -1.80 -1.25 -3.60 -1.30 -2.05 -0.05 -2.55 0.15 -3.80 1.60 -2.45 2.70 -1.55 7.70 1.45 8.40 0.75 0.15 1.60 0.35 1.85 0.45 0.50 0.15 1.20 0.05 3.15 -0.50z"/>
  <path d="M137 39.85 c0 -6.95 0.05 -7.35 1.40 -9.90 1.75 -3.35 4.75 -5.35 8.90 -5.90 1.65 -0.25 3.25 -0.30 3.60 -0.20 0.40 0.20 0.60 1.35 0.60 3.45 l0 3.20 -2 0 c-2.55 0 -4.90 1.20 -5.25 2.65 -0.15 0.60 -0.30 3.90 -0.40 7.35 l-0.10 6.25 -3.35 0.15 -3.40 0.15 0 -7.20z"/>
  <path d="M154 46.60 l-1.75 -0.35 -0.15 -3.20 -0.15 -3.15 2.55 0.35 c2.60 0.35 10.95 0.45 11.25 0.15 0.70 -0.65 -1.20 -1.55 -4.80 -2.20 -5.10 -1 -6.70 -1.75 -7.75 -3.80 -1.10 -2.15 -0.70 -6.05 0.80 -7.65 2.05 -2.20 4.25 -2.85 9.20 -2.80 2.50 0.05 5.35 0.25 6.30 0.45 l1.75 0.40 0.15 3.10 0.15 3.15 -3.40 -0.40 c-4.90 -0.50 -8.80 -0.40 -9 0.20 -0.25 0.65 -0.05 0.70 5.60 1.95 5.45 1.25 7.50 3.05 7.50 6.55 0 3.05 -1.10 4.80 -3.90 6.25 -1.70 0.90 -3.05 1.10 -7.35 1.20 -2.90 0.05 -6.05 -0.05 -7 -0.20z"/>
  <path d="M183.50 39.40 c0 -6.35 0.20 -8 0.95 -9.65 1.80 -4 5.55 -6 10.60 -5.65 2.60 0.20 3.20 0.45 4.90 2.10 l1.90 1.85 0.85 -1.25 c1.35 -2.15 3.55 -2.95 7.30 -2.70 4.15 0.20 6.95 1.85 8.60 5.05 1 1.85 1.15 3 1.30 10 l0.20 7.85 -3.55 0 -3.55 0 0 -7.25 c0 -6.60 -0.10 -7.35 -1 -8.25 -1.40 -1.40 -4.50 -1.35 -5.80 0.05 -0.80 0.90 -0.95 2 -1.10 8.25 l-0.15 7.25 -3.35 -0.15 -3.35 -0.15 -0.05 -6 c-0.15 -8.40 -0.10 -8.15 -1.20 -9.25 -1.40 -1.40 -4.50 -1.35 -5.80 0.05 -0.85 0.90 -0.95 1.95 -1 8.15 l-0.10 7.05 -3.30 0.15 -3.30 0.15 0 -7.65z"/>
  <path d="M228.75 46.05 c-2.30 -1.05 -5.05 -3.20 -5.75 -4.60 -0.30 -0.50 -0.75 -2.10 -1 -3.55 -1.50 -7.75 3.50 -13.75 11.55 -14 5.95 -0.15 10.05 2.85 10.15 7.40 0.05 2.60 -1.20 4.50 -4.10 6.10 -2.25 1.25 -6.75 1.60 -9.20 0.65 -1.80 -0.70 -1.85 0.15 -0.05 1.30 1.10 0.75 2.35 0.90 6.50 0.85 l5.15 -0.05 0 3.10 0 3.10 -1.85 0.35 c-3.80 0.60 -9.35 0.30 -11.40 -0.65z m7.55 -13.30 c0.95 -0.75 0.95 -0.75 0 -1.50 -0.55 -0.40 -1.65 -0.75 -2.40 -0.75 -1.60 0 -4.40 1.25 -4.40 2 0 1.05 5.45 1.25 6.80 0.25z"/>
  <path d="M253.15 46.50 c-2.55 -0.60 -4.80 -2.15 -6.40 -4.40 -1.20 -1.75 -1.50 -2.75 -1.65 -5.60 -0.10 -1.85 0.05 -4.20 0.35 -5.15 0.90 -2.60 3.75 -5.65 6.30 -6.60 2.85 -1.10 7.75 -0.85 9.25 0.50 l1 0.90 0 -5.55 0 -5.60 3.50 0 3.50 0 0 10.90 c0 12.70 -0.40 14.85 -3.35 17.70 -3.05 3 -7.70 4.05 -12.50 2.90z m7.85 -7.35 c0.90 -1.15 1.05 -1.90 0.90 -4.05 -0.30 -3.15 -1.05 -4.10 -4 -4.60 -4.20 -0.80 -7 2 -6.20 6.25 0.50 2.50 2.35 3.75 5.60 3.75 2.25 0 2.75 -0.20 3.70 -1.35z"/>
  <path d="M272 35.50 l0 -11.50 3.50 0 3.50 0 0 11.50 0 11.50 -3.50 0 -3.50 0 0 -11.50z"/>
  <path d="M287.45 45.65 c-3.90 -2 -5.60 -4.65 -5.85 -9.20 -0.35 -5.65 1.70 -9.50 6.10 -11.50 2.10 -0.95 7.15 -1.25 10.95 -0.65 l1.85 0.35 0 3.45 c0 3.35 -0.05 3.45 -1.10 3.10 -1.70 -0.55 -4.05 -0.95 -4.90 -0.90 -0.40 0.05 -1.35 0.10 -2.10 0.15 -0.75 0 -1.95 0.60 -2.70 1.25 -1.20 1 -1.40 1.55 -1.40 3.70 0 2.95 1 4.40 3.40 5 1.45 0.40 5.20 0.05 7.70 -0.70 1.05 -0.30 1.10 -0.20 1.10 3.20 l0 3.45 -1.85 0.35 c-4.50 0.70 -8.35 0.35 -11.20 -1.05z"/>
  <path d="M308.75 46.05 c-4.15 -1.85 -6.50 -6.35 -6.15 -11.70 0.25 -3.85 1.80 -6.60 4.95 -8.70 2.85 -1.85 9.20 -2.25 12.55 -0.75 4.05 1.75 6.40 6.15 6.45 12.05 0 1.80 0.40 4.80 0.90 6.70 l0.85 3.35 -3.40 0 c-2.60 0 -3.50 -0.20 -3.65 -0.75 -0.80 -2.55 -0.70 -2.45 -1.90 -1.35 -2.40 2.25 -7.05 2.80 -10.60 1.15z m9.50 -6.80 c1.50 -1.45 1.70 -5.05 0.45 -7 -1.40 -2.15 -5.80 -2.70 -7.80 -0.90 -2.15 1.95 -2 6.80 0.25 8.40 0.60 0.40 2.15 0.75 3.50 0.75 1.90 0 2.65 -0.25 3.60 -1.25z"/>
  <path d="M329.75 31.10 l0 -15.85 3.40 -0.15 3.35 -0.15 0 16.05 0 16 -3.35 0 -3.40 0 0 -15.90z"/>
  <path d="M375.85 46.30 c-4.85 -1.75 -7.50 -5.60 -7.45 -11 0.05 -3.70 0.55 -5.10 2.70 -7.60 2.20 -2.50 5.10 -3.75 9 -3.80 7.60 -0.10 12.10 4.80 9.40 10.35 -0.85 1.75 -1.50 2.35 -3.60 3.25 -2.75 1.20 -6.75 1.40 -9.10 0.55 -1.20 -0.50 -1.30 -0.45 -0.80 0.45 0.80 1.45 4.15 2.15 8.65 1.75 l3.85 -0.30 0 3.20 0 3.20 -1.85 0.35 c-3.15 0.50 -8.80 0.30 -10.80 -0.40z m6.95 -13.55 c0.95 -0.75 0.95 -0.75 0 -1.50 -0.55 -0.40 -1.65 -0.75 -2.40 -0.75 -1.60 0 -4.40 1.25 -4.40 2 0 1.10 5.40 1.30 6.80 0.25z"/>
  <path d="M392.60 39.65 c0.15 -6.70 0.25 -7.65 1.40 -9.90 0.80 -1.60 2.05 -3.05 3.40 -4 2.05 -1.40 2.50 -1.50 6.85 -1.50 4.40 0 4.80 0.10 6.80 1.50 1.30 0.90 2.65 2.50 3.40 4 1.20 2.25 1.30 3.10 1.45 9.85 l0.20 7.40 -3.55 0 -3.55 0 0 -6.60 c0 -4.35 -0.25 -7.10 -0.65 -7.90 -0.85 -1.70 -3.80 -2.65 -5.85 -1.95 -2.50 0.90 -3 2.55 -3 9.95 l0 6.50 -3.55 0 -3.55 0 0.20 -7.35z"/>
  <path d="M425.25 45.80 c-5.60 -2.60 -6.75 -5.75 -6.75 -18.40 l0 -8.90 3.50 0 3.50 0 0 3 c0 3.35 -0.25 3.15 4.50 3.20 l1.75 0.05 0 3.25 0 3.25 -2.25 0.05 c-4.20 0.05 -4 -0.10 -4 3.15 0 2.20 0.25 3.25 1 4.20 1.15 1.45 3.85 2.40 5.50 2 0.95 -0.25 1 -0.05 1 3.05 l0 3.30 -2.60 0 c-1.70 0 -3.55 -0.40 -5.15 -1.20z"/>
  <path d="M440.80 46.20 c-4.95 -1.80 -7.30 -5.20 -7.30 -10.70 0 -7.20 4.35 -11.45 11.75 -11.60 11.85 -0.20 14.10 12.45 2.60 14.60 -1.80 0.35 -3.55 0.15 -6.25 -0.70 -1.10 -0.35 -1.15 -0.30 -0.65 0.65 0.85 1.50 4.15 2.20 8.70 1.85 l3.85 -0.30 0 3.15 0 3.20 -1.85 0.35 c-3.20 0.50 -8.80 0.25 -10.85 -0.50z m6.95 -13.40 c0.80 -0.60 0.85 -0.80 0.30 -1.50 -0.40 -0.45 -1.40 -0.80 -2.40 -0.80 -1.80 0 -4.65 1.20 -4.65 2 0 1 5.45 1.25 6.75 0.30z"/>
  <path d="M457.65 46.20 c-0.60 -1.60 0.20 -13.40 1.05 -15.45 1.70 -3.95 5.55 -6.50 10.55 -6.85 l2.50 -0.15 0.15 3.40 0.15 3.35 -1.80 0 c-2.35 0 -4.65 1.25 -5.25 2.80 -0.30 0.70 -0.50 4.05 -0.50 7.50 l0 6.20 -3.25 0 c-2.55 0 -3.35 -0.20 -3.60 -0.80z"/>
  <path d="M273.45 21.35 c-3.25 -2.50 -1.80 -7.35 2.20 -7.35 1.90 0 3.85 2 3.85 4 0 3 -3.80 5.10 -6.05 3.35z"/>
 </g>
</svg>