<?xml version="1.0"?>
<svg width="500" height="500" xmlns="http://www.w3.org/2000/svg" xmlns:svg="http://www.w3.org/2000/svg" enable-background="new 0 0 500 500" version="1.1" xml:space="preserve">
 <g class="layer">
  <title>Layer 1</title>
  <g id="OBJECT">
   <g id="svg_2">
    <path d="m221.65,98.33c0,0 -43.12,17.49 -62.04,74.66s-92.14,58.8 -107.35,124.45c-15.2,65.65 22.96,120.42 42.17,130.14l329.15,0c0,0 47.74,-70.12 33.1,-136.58c-14.65,-66.47 -49.01,-66.43 -74.35,-121.36c-25.35,-54.94 -91.18,-94.72 -160.68,-71.31z" fill="#B2D5FF" id="svg_3"/>
    <path d="m156.15,358.67l2.85,2.07c0,0 5.2,0.32 6.69,0.66c1.49,0.35 2.78,4.06 2.31,4.74c-0.46,0.68 -1.18,0.61 -1.18,0.61s-1.1,1.75 -1.69,2.29c-0.58,0.54 -1.32,1.33 -2.87,0.84c-1.54,-0.48 -2.62,-1.58 -2.62,-1.58s-2.28,-1.09 -2.57,-1.52c-0.29,-0.42 -0.32,-0.83 -0.32,-0.83l-2.92,-1.9l2.32,-5.38z" fill="#FFD19E" id="svg_4"/>
    <ellipse cx="331.01" cy="70.79" fill="#CFE7FF" id="svg_5" rx="10.03" ry="10.03" transform="matrix(0.7071 -0.7071 0.7071 0.7071 46.8976 254.7957)"/>
    <path d="m222.28,77.42c0,2.96 -2.41,5.37 -5.37,5.37s-5.37,-2.41 -5.37,-5.37c0,-2.96 2.4,-5.37 5.37,-5.37s5.37,2.41 5.37,5.37z" fill="#CFE7FF" id="svg_6"/>
    <path d="m418.16,246.21c0,3.52 -2.85,6.37 -6.37,6.37c-3.52,0 -6.37,-2.85 -6.37,-6.37c0,-3.52 2.85,-6.37 6.37,-6.37c3.52,0 6.37,2.85 6.37,6.37z" fill="#CFE7FF" id="svg_7"/>
    <path d="m201.29,232.07c0,3.52 -2.85,6.38 -6.37,6.38c-3.52,0 -6.37,-2.86 -6.37,-6.38c0,-3.52 2.85,-6.37 6.37,-6.37c3.52,0 6.37,2.85 6.37,6.37z" fill="#CFE7FF" id="svg_8"/>
    <g id="svg_9">
     <path d="m445.41,353.83c0,3.52 -5.35,1.83 -5.78,7.32c-0.42,5.49 2.82,6.05 0,9.72s-7.46,6.47 -6.75,13.09c0.7,6.62 6.46,8.17 4.07,12.25c-2.38,4.09 -4.38,10.67 0.28,15.54c0,0 10.01,-3.99 11.28,-12.16c1.26,-8.17 -2.82,-11.97 -0.57,-16.47c2.26,-4.51 4.37,-4.09 4.65,-9.86c0.28,-5.77 -5.07,-8.7 -3.1,-11.11c1.97,-2.41 4.81,-2.69 3.11,-6.63c-1.7,-3.95 1.71,-5.79 0.52,-8.45c-1.37,-3.1 -7.71,3.24 -7.71,6.76z" fill="#0AA599" id="svg_10"/>
     <path d="m449.07,352.42c0,0 0.28,3.38 -0.7,4.08c-0.99,0.71 -4.09,2.29 -4.51,5.65c-0.42,3.37 2.82,7.17 0.85,8.86c-1.98,1.69 -5.92,4.16 -5.64,10.6c0.28,6.44 2.82,6.58 2.96,12.63s-4.22,12.25 -4.22,12.25" fill="none" id="svg_11" stroke="#FFFFFF" stroke-miterlimit="10"/>
     <path d="m425.69,403.25c0,0 -4.78,-2.25 -3.66,-11.12c1.13,-8.87 2.54,-8.59 0.43,-15.49c-2.12,-6.9 2.25,-11.79 4.5,-14.49c2.25,-2.69 -0.98,-10.29 4.79,-11.28c5.77,-0.98 -0.42,9.44 3.52,15.07c3.94,5.63 -2.54,14.08 -1.27,18.45c1.27,4.36 8.45,10.7 6.48,18.3c-1.97,7.6 -3.66,9.72 -3.66,9.72s-5.35,-6.2 -11.13,-9.16z" fill="#00CAC1" id="svg_12"/>
     <path d="m430.34,355.52c0,0 1.69,3.66 -1.12,8.73c-2.82,5.07 -3.66,11.4 -2.12,16.33c1.55,4.93 -1.4,7.32 0.71,15.21c2.11,7.89 10.28,8.87 9.01,16.62" fill="none" id="svg_13" stroke="#FFFFFF" stroke-miterlimit="10"/>
     <path d="m423.58,406.49l28.02,0l-3.65,17.65c-0.41,2.01 -2.18,3.45 -4.23,3.45l-12.25,0c-2.05,0 -3.82,-1.44 -4.23,-3.45l-3.66,-17.65z" fill="#FF854F" id="svg_14"/>
     <rect fill="#FF854F" height="2.99" id="svg_15" width="12.94" x="431.34" y="427.58"/>
    </g>
    <g id="svg_16">
     <path d="m178.75,97.7c-4.54,-18.17 -25.95,-13.75 -25.95,0.97c0,-12.28 -21.41,-19.14 -25.95,-0.97c-4.54,18.17 25.95,34.71 25.95,34.71s30.49,-16.54 25.95,-34.71z" fill="#FF854F" id="svg_17"/>
     <polyline fill="none" id="svg_18" points="     132.607,108.357 139.176,108.357 142.461,101.18 144.65,111.775 146.597,106.477 148.3,109.695 150.368,106.477 157.423,106.477      159.005,99.355 161.559,110.668 164.235,104.707 165.817,107.992 174.94,107.992    " stroke="#FFFFFF" stroke-linecap="round" stroke-linejoin="round" stroke-miterlimit="10"/>
    </g>
    <path d="m80.47,365.49c0,3.1 -2.51,5.61 -5.61,5.61c-3.1,0 -5.62,-2.51 -5.62,-5.61c0,-3.1 2.52,-5.61 5.62,-5.61c3.1,0 5.61,2.51 5.61,5.61z" fill="none" id="svg_19" stroke="#FFFFFF" stroke-miterlimit="10"/>
    <g id="svg_20">
     <path d="m418.83,94.75l-24.69,-11.36l-24.7,11.36c0,0 -0.85,17.8 2.96,29.84c3.3,10.46 21.46,17.06 21.74,16.98c0.28,0.08 18.43,-6.52 21.74,-16.98c3.8,-12.04 2.95,-29.84 2.95,-29.84z" fill="#94B9FF" id="svg_21"/>
     <polygon fill="#FFFFFF" id="svg_22" points="407.143,106.423 398.378,106.423 398.378,97.657 389.401,97.657 389.401,106.423      380.635,106.423 380.635,115.4 389.401,115.4 389.401,124.165 398.378,124.165 398.378,115.4 407.143,115.4    "/>
    </g>
    <g id="svg_23">
     <rect fill="#FF854F" height="2.82" id="svg_24" width="26.75" x="423.02" y="256.95"/>
     <rect fill="#FF854F" height="44.92" id="svg_25" width="17.18" x="427.24" y="259.77"/>
     <rect fill="#FFFFFF" height="23.13" id="svg_26" width="2.54" x="434.28" y="304.69"/>
     <rect fill="#FFAF3F" height="7.99" id="svg_27" width="9.08" x="431.01" y="304.69"/>
     <polygon fill="#FFAF3F" id="svg_28" points="439.199,233.047 435.763,233.047 432.327,233.047 430.377,256.95 435.763,256.95      441.149,256.95    "/>
     <rect fill="#FFAF3F" height="2.32" id="svg_29" width="15.74" x="428.05" y="230.72"/>
     <line fill="none" id="svg_30" stroke="#FFFFFF" stroke-linecap="round" stroke-linejoin="round" stroke-miterlimit="10" x1="435.55" x2="435.55" y1="304.69" y2="264.55"/>
     <line fill="none" id="svg_31" stroke="#FFFFFF" stroke-linecap="round" stroke-linejoin="round" stroke-miterlimit="10" x1="432.74" x2="438.79" y1="263.99" y2="263.99"/>
     <line fill="none" id="svg_32" stroke="#FFFFFF" stroke-linecap="round" stroke-linejoin="round" stroke-miterlimit="10" x1="432.74" x2="438.79" y1="268.85" y2="268.85"/>
     <line fill="none" id="svg_33" stroke="#FFFFFF" stroke-linecap="round" stroke-linejoin="round" stroke-miterlimit="10" x1="432.74" x2="438.79" y1="273.71" y2="273.71"/>
     <line fill="none" id="svg_34" stroke="#FFFFFF" stroke-linecap="round" stroke-linejoin="round" stroke-miterlimit="10" x1="432.74" x2="438.79" y1="278.56" y2="278.56"/>
     <line fill="none" id="svg_35" stroke="#FFFFFF" stroke-linecap="round" stroke-linejoin="round" stroke-miterlimit="10" x1="432.74" x2="438.79" y1="283.42" y2="283.42"/>
     <line fill="none" id="svg_36" stroke="#FFFFFF" stroke-linecap="round" stroke-linejoin="round" stroke-miterlimit="10" x1="432.74" x2="438.79" y1="288.28" y2="288.28"/>
     <line fill="none" id="svg_37" stroke="#FFFFFF" stroke-linecap="round" stroke-linejoin="round" stroke-miterlimit="10" x1="432.74" x2="438.79" y1="293.14" y2="293.14"/>
     <line fill="none" id="svg_38" stroke="#FFFFFF" stroke-linecap="round" stroke-linejoin="round" stroke-miterlimit="10" x1="432.74" x2="438.79" y1="298" y2="298"/>
    </g>
    <g id="svg_39">
     <path d="m432.6,169.75c0,3.29 -1.04,6.34 -2.79,8.85c-1.04,1.47 -2.31,2.75 -3.78,3.77c-2.5,1.77 -5.55,2.8 -8.85,2.8c-8.51,0 -15.42,-6.91 -15.42,-15.42c0,-3.3 1.03,-6.35 2.8,-8.86c1.02,-1.46 2.3,-2.75 3.77,-3.77c2.51,-1.76 5.56,-2.8 8.85,-2.8c8.52,0 15.42,6.91 15.42,15.43z" fill="#FFAF3F" id="svg_40"/>
     <path d="m429.81,178.6c-1.04,1.47 -2.31,2.75 -3.78,3.77l-21.47,-21.48c1.02,-1.46 2.3,-2.75 3.77,-3.77l21.48,21.48z" fill="#FF854F" id="svg_41"/>
    </g>
    <g id="svg_42">
     <path d="m87.19,322.82l0,0c-4.44,3.9 -11.21,3.46 -15.11,-0.99l-14.24,-16.23c-3.9,-4.45 -3.46,-11.22 0.99,-15.12l0,0c4.44,-3.9 11.21,-3.46 15.11,0.99l14.24,16.23c3.9,4.45 3.46,11.22 -0.99,15.12z" fill="#FFFFFF" id="svg_43"/>
     <path d="m66.37,318.89c-4.44,3.9 -11.21,3.46 -15.12,-0.99l-6.91,-7.88l-7.32,-8.36c-3.9,-4.44 -3.46,-11.2 0.99,-15.11c2.03,-1.78 4.55,-2.66 7.05,-2.66c2.98,0 5.95,1.23 8.07,3.65l7.26,8.28l6.97,7.95c3.9,4.45 3.46,11.22 -0.99,15.12z" fill="#FFAF3F" id="svg_44"/>
     <path d="m60.39,295.82l-16.05,14.2l-7.32,-8.36c-3.9,-4.44 -3.46,-11.2 0.99,-15.11c2.03,-1.78 4.55,-2.66 7.05,-2.66c2.98,0 5.95,1.23 8.07,3.65l7.26,8.28z" fill="#FF854F" id="svg_45"/>
    </g>
    <g id="svg_46">
     <g id="svg_47">
      <path d="m171.92,259.3l-105.37,0c-2.91,0 -5.27,-2.36 -5.27,-5.27l0,-60.89c0,-2.91 2.36,-5.27 5.27,-5.27l105.37,0c2.91,0 5.27,2.36 5.27,5.27l0,60.89c0,2.91 -2.36,5.27 -5.27,5.27z" fill="#0AA599" id="svg_48"/>
      <rect fill="#ECECEC" height="57.03" id="svg_49" width="100.46" x="68.9" y="194.37"/>
      <polygon fill="#FFFFFF" id="svg_50" points="169.362,240.379 169.362,251.399 148.771,251.399 68.902,194.368 97.092,194.368     "/>
      <polygon fill="#FFFFFF" id="svg_51" points="169.362,211.903 169.362,221.78 123.587,194.368 140.176,194.368     "/>
      <polygon fill="#FFFFFF" id="svg_52" points="103.154,251.399 89.424,251.399 68.902,240.113 68.902,229.665     "/>
      <polygon fill="#94B9FF" id="svg_53" points="131.609,216.456 124.024,216.456 124.024,208.871 112.337,208.871 112.337,216.456       104.752,216.456 104.752,228.143 112.337,228.143 112.337,235.728 124.024,235.728 124.024,228.143 131.609,228.143     "/>
     </g>
     <g id="svg_54">
      <path d="m142.41,187.87l-41.6,0c-0.6,0 -1.09,-0.49 -1.09,-1.09l0,-17.95c0,-0.6 0.49,-1.09 1.09,-1.09l41.6,0c0.61,0 1.1,0.49 1.1,1.09l0,17.95c0,0.6 -0.49,1.09 -1.1,1.09z" fill="#94B9FF" id="svg_55"/>
      <path d="m111.24,170.12c-4.57,0 -8.27,3.71 -8.27,8.28c0,4.56 3.7,8.27 8.27,8.27c4.57,0 8.27,-3.71 8.27,-8.27c0,-4.57 -3.7,-8.28 -8.27,-8.28zm0,11.81c-1.96,0 -3.54,-1.58 -3.54,-3.54s1.58,-3.53 3.54,-3.53c1.95,0 3.54,1.58 3.54,3.53s-1.59,3.54 -3.54,3.54z" fill="#CFE7FF" id="svg_56"/>
      <path d="m131.99,170.12c-4.57,0 -8.27,3.71 -8.27,8.28c0,4.56 3.7,8.27 8.27,8.27c4.57,0 8.27,-3.71 8.27,-8.27c0,-4.57 -3.7,-8.28 -8.27,-8.28zm0,11.81c-1.96,0 -3.54,-1.58 -3.54,-3.54s1.58,-3.53 3.54,-3.53c1.95,0 3.54,1.58 3.54,3.53s-1.59,3.54 -3.54,3.54z" fill="#CFE7FF" id="svg_57"/>
     </g>
     <g id="svg_58">
      <rect fill="#94B9FF" height="6.41" id="svg_59" width="15.09" x="73.63" y="137.53"/>
      <path d="m94.43,187.87l-26.52,0l0,-37.52c0,-3.54 2.87,-6.41 6.41,-6.41l13.7,0c3.54,0 6.41,2.87 6.41,6.41l0,37.52z" fill="#CFE7FF" id="svg_60"/>
      <rect fill="#94B9FF" height="20.86" id="svg_61" width="26.52" x="67.91" y="157.54"/>
      <polygon fill="#CFE7FF" id="svg_62" points="86.89,164.021 83.589,164.021 83.589,160.72 78.503,160.72 78.503,164.021       75.202,164.021 75.202,169.107 78.503,169.107 78.503,172.408 83.589,172.408 83.589,169.107 86.89,169.107     "/>
     </g>
    </g>
    <path d="m204.37,169.63l-5.7,0l0,-5.7c0,-0.27 -0.22,-0.49 -0.5,-0.49s-0.49,0.22 -0.49,0.49l0,5.7l-5.7,0c-0.27,0 -0.49,0.22 -0.49,0.49s0.22,0.49 0.49,0.49l5.7,0l0,5.7c0,0.27 0.22,0.5 0.49,0.5s0.5,-0.22 0.5,-0.5l0,-5.7l5.7,0c0.27,0 0.49,-0.22 0.49,-0.49s-0.22,-0.49 -0.49,-0.49z" fill="#FFFFFF" id="svg_63"/>
    <path d="m183.38,287.79l-5.69,0l0,-5.7c0,-0.27 -0.22,-0.49 -0.5,-0.49c-0.27,0 -0.49,0.22 -0.49,0.49l0,5.7l-5.7,0c-0.27,0 -0.49,0.22 -0.49,0.49s0.22,0.49 0.49,0.49l5.7,0l0,5.7c0,0.27 0.22,0.49 0.49,0.49c0.27,0 0.49,-0.22 0.49,-0.49l0,-5.7l5.7,0c0.27,0 0.5,-0.22 0.5,-0.49s-0.22,-0.49 -0.5,-0.49z" fill="#FFFFFF" id="svg_64"/>
    <path d="m449.28,205.57l-5.7,0l0,-5.69c0,-0.28 -0.22,-0.5 -0.49,-0.5s-0.49,0.22 -0.49,0.5l0,5.69l-5.7,0c-0.27,0 -0.49,0.22 -0.49,0.5c0,0.27 0.22,0.49 0.49,0.49l5.7,0l0,5.7c0,0.27 0.22,0.49 0.49,0.49s0.49,-0.22 0.49,-0.49l0,-5.7l5.7,0c0.27,0 0.49,-0.22 0.49,-0.49c0,-0.28 -0.21,-0.5 -0.49,-0.5z" fill="#CFE7FF" id="svg_65"/>
   </g>
   <g id="svg_66">
    <g id="svg_67">
     <g id="svg_68">
      <path d="m419.57,339.17l-0.13,76l-0.02,12.42l-88.12,0l0.15,-88.42c0,-2.29 0.6,-4.45 1.66,-6.32c2.21,-3.97 6.43,-6.64 11.3,-6.64l62.2,0c7.16,0 12.96,5.8 12.96,12.96z" fill="#7EA9ED" id="svg_69"/>
      <path d="m419.44,415.17l-0.02,12.42l-88.12,0l0.15,-88.41c0,-2.3 0.6,-4.46 1.66,-6.33c5.06,17.17 23.47,58.59 86.33,82.32z" fill="#6C96D8" id="svg_70"/>
      <g id="svg_71">
       <polygon fill="#FFD19E" id="svg_72" points="376.214,293.6 379.75,319.317 386.629,319.317 386.629,295.589      "/>
       <polygon fill="#FFD19E" id="svg_73" points="361.238,293.6 364.774,319.317 371.653,319.317 371.653,295.589      "/>
       <path d="m357.73,207.46l-11.04,18.2l-13.35,5.56l1.1,11.25c0,0 6.91,0.5 12.42,-1.72c5.5,-2.22 7.1,-4.44 7.1,-4.44l3.77,-28.85z" fill="#C5C5C5" id="svg_74"/>
       <path d="m383.55,244.47c0.45,-11.19 2.93,-32.89 -0.56,-36.26c-4.6,-4.46 -9.75,-4.89 -9.75,-4.89l-11.83,0.83c0,0 -5.06,2.24 -6.86,10.76c-1.37,6.5 0.53,24.86 1.83,33.71c0,0 30.02,0.1 27.17,-4.15z" fill="#94B9FF" id="svg_75"/>
       <path d="m373.1,197.16l0.31,6.82l-9.13,4.17c-1.23,0.56 -2.63,-0.36 -2.6,-1.72l0.11,-4.33l11.31,-4.94z" fill="#E2AC76" id="svg_76"/>
       <path d="m354.08,184.17c-1.27,6.73 0.98,16.66 7.71,17.93c6.73,1.26 13.65,-5.48 14.91,-12.21c1.27,-6.73 -3.16,-13.22 -9.89,-14.48s-11.47,2.03 -12.73,8.76z" fill="#FFD19E" id="svg_77"/>
       <path d="m364.69,318.74c0,0 -9.65,4.4 -10.01,6.58c-0.37,2.18 14.84,1.38 16.15,1.09c1.31,-0.3 0.82,-7.67 0.82,-7.67l-6.96,0z" fill="#FFFFFF" id="svg_78"/>
       <path d="m379.26,318.4c0,0 -6.93,6.7 -6.69,8.39c0.24,1.69 11.38,0.98 14.92,0l-0.59,-7.47l-7.64,-0.92z" fill="#FFFFFF" id="svg_79"/>
       <polygon fill="#6C96D8" id="svg_80" points="316.598,215.194 338.894,219.127 347.205,254.111 324.91,250.154      "/>
       <path d="m388.72,267.92l-0.01,0c-0.01,0.68 -0.03,1.43 -0.07,2.23c-0.36,9.23 -2.01,25.44 -2.01,25.44l-26.74,0l-3.51,-48.26c8.8,1.29 27.24,-4.34 27.24,-4.34c6.19,9.71 5.1,24.93 5.1,24.93z" fill="#0AA599" id="svg_81"/>
       <path d="m388.72,267.92l-0.01,0c-0.01,0.68 -0.03,1.43 -0.07,2.23l-13.89,2.84l-3.43,-8.15c-3.12,8.83 -6.12,19.84 -6.7,30.75l-4.72,0l-3.52,-48.26c8.8,1.29 27.24,-4.34 27.24,-4.34c6.19,9.71 5.1,24.93 5.1,24.93z" fill="#15877C" id="svg_82"/>
       <path d="m354.49,182.49c0,0 2.44,5.06 14.96,4.43c0,0 -0.26,4.86 1.11,5.38c1.38,0.53 1.25,-3.92 3.7,-3.17c2.44,0.76 0.21,7.39 -1.8,8.03l0.78,6.16c0,0 12.11,2.61 15.49,-2.57c3.38,-5.17 -3.59,-13.09 -5.81,-18.48c-2.22,-5.39 -5.07,-12.25 -14.47,-12.67c-9.4,-0.42 -12.78,4.43 -12.78,4.43s-8.66,6.23 -1.93,15.95c0,0 0.22,-6.44 0.75,-7.49z" fill="#444443" id="svg_83"/>
       <path d="m370.41,205.35c0,0 -0.52,29.06 1.24,41.48c1.76,12.43 4.56,17.92 4.56,17.92l17.9,-3.38c0,0 -8.48,-29.85 -8.36,-41.22c0,0 -1.15,-9.68 -3.58,-12.69c-2.42,-3.01 -8.33,-4.07 -8.33,-4.07l-3.43,1.96z" fill="#FFFFFF" id="svg_84"/>
       <path d="m361.68,206.43c0,0 -2.31,4.21 -3.95,19.54c-1.64,15.34 1.11,38.78 1.11,38.78l-7.66,0c0,0 1.77,-25.67 2.06,-38.02c0.29,-12.35 1.93,-19.52 8.16,-22.58l0.28,2.28z" fill="#FFFFFF" id="svg_85"/>
       <path d="m376.33,211.51l-8.23,19.13l-17.29,5.3l0.95,7.69c0,0 19.96,0.55 24.19,-4.65c4.22,-5.19 13.07,-20.41 9.92,-27.63c-1.57,-3.62 -3.77,-4.01 -5.58,-3.5c-1.8,0.52 -3.22,1.94 -3.96,3.66z" fill="#ECECEC" id="svg_86"/>
       <path d="m351.38,235.56l-2.35,0.35c0,0 -4.69,-0.86 -5.86,-0.74c-1.17,0.11 -5.24,1.49 -5.37,3.07c-0.13,1.58 1.12,1.98 1.12,1.98s-1.21,2.1 1.15,3.15c0,0 -0.01,1.58 0.75,2.01s1.5,0.39 1.5,0.39s0.54,0.81 1.74,1.03c1.21,0.22 1.95,-0.73 1.95,-0.73s1.81,0.36 3.43,-0.11c1.63,-0.48 2.43,-2.07 2.43,-2.07l2.21,-0.97l-2.7,-7.36z" fill="#FFD19E" id="svg_87"/>
      </g>
     </g>
     <g id="svg_88">
      <path d="m89.66,400.98c0,0 -18.25,4.95 -20.78,6.36c-2.54,1.4 -10.98,17.17 -8.31,18.87c2.68,1.69 5.07,1.18 8.17,-1.88c3.1,-3.05 6.12,-10.26 6.12,-10.26s14.74,-10.73 14.8,-13.09z" fill="#F4B882" id="svg_89"/>
      <path d="m295,182.26l-5.18,41.27l-46.92,11.91c6.13,-9.8 8.4,-19.76 9.09,-27.46c0.56,-6.14 0.12,-10.85 -0.17,-12.92c-0.09,-0.75 -0.16,-1.15 -0.16,-1.15l43.34,-11.65z" fill="#FFEECC" id="svg_90"/>
      <path d="m251.99,207.98c0.56,-6.14 0.12,-10.85 -0.17,-12.92l37.99,-8.09l0.88,4.5c0,0 -20.1,16.43 -38.7,16.51z" fill="#E2AC76" id="svg_91"/>
      <path d="m264.33,94.89c-13.08,0.78 -24.01,10.33 -26.73,23.15c-0.03,0.14 -0.06,0.28 -0.09,0.42c-2.91,14.15 -2.02,22.45 -11.22,22.45c-9.21,0 -2.25,11.01 0,11.68c0,0 -3.37,24.7 1.79,38.17c5.17,13.47 52.99,7.86 63.32,-3.37c10.33,-11.23 22.9,-57.48 16.61,-75.89c-4.41,-12.93 -26.01,-17.67 -43.68,-16.61z" fill="#FFEECC" id="svg_92"/>
      <path d="m314.54,407.74c-0.87,9.38 -1.47,15.1 -1.47,15.1l-135.88,0c0,0 10.51,-80.82 24.78,-136.58c2.41,-9.45 4.94,-18.18 7.54,-25.68c8.98,-25.89 30.8,-43.97 57.93,-47.79l24.11,-2.97c0,0 17.56,11.97 27.06,40.47c7.61,22.81 -0.52,119.74 -4.07,157.45z" fill="#94B9FF" id="svg_93"/>
      <path d="m293.51,404.91l16.19,-132.06l-50.11,121.39c-35.81,-19.95 -51.31,-74.38 -57.62,-107.98c-14.26,55.76 -24.05,141.32 -24.05,141.32l135.89,0c0,0 -0.14,-10.46 0.73,-19.84c-5.97,-0.32 -12.94,-1.19 -21.03,-2.83z" fill="#7EA9ED" id="svg_94"/>
      <path d="m315.25,259.17c0,2.56 -0.37,5.18 -1.13,7.76l-13.91,46.83l-28.08,94.5l-0.99,3.32c-1.09,3.68 -2.97,6.96 -5.43,9.67c-4.61,5.12 -11.26,8.24 -18.49,8.27l-0.13,0l-112.38,0.61c-5.21,1.92 -17.36,2.25 -25.01,2.25c-1.12,0 -2.15,-0.01 -3.04,-0.02l-9.03,0.3c0,0 -3.51,9.16 -6.65,9.54c-0.46,0.06 -0.89,0.07 -1.28,0.03c-2.3,-0.14 -3.48,-1.41 -3.48,-1.41s2.6,-8.32 5.37,-13.7l-5.37,3.73l-3.06,6.63c-0.81,1.78 -2.52,2.99 -4.47,3.19l-0.21,0.02c-0.47,0.05 -0.92,-0.01 -1.34,-0.16c-1.37,-0.45 -2.33,-1.82 -2.16,-3.38c0.38,-3.3 1.2,-7.86 2.96,-10.13c1.13,-1.46 3.65,-4.61 6.32,-7.93l-6.82,3.41l-2.2,7.45c-0.58,1.97 -2.17,3.42 -4.14,3.86l-0.01,0c-0.21,0.05 -0.42,0.09 -0.64,0.11l-1.14,0.1c-2.07,0.21 -3.71,-1.69 -3.22,-3.71l3.21,-13.12c0.4,-1.59 1.35,-2.98 2.7,-3.91l18.36,-12.8c1.21,-0.85 2.68,-1.25 4.16,-1.16l34.08,2.08l104,-26.85l17.91,-75.11l11.66,-48.85c4.68,-14.08 19.78,-21.83 33.95,-17.41c11.64,3.63 19.13,14.36 19.13,25.99z" fill="#FFEECC" id="svg_95"/>
      <path d="m241.26,126.72c0,0 1.19,-3.56 5.64,-2.47c4.45,1.09 6.03,5.44 6.03,5.44l-11.67,-2.97z" fill="#FFAF3F" id="svg_96"/>
      <path d="m248.09,138.01c-0.19,2.28 -1.38,4.05 -2.65,3.94s-2.15,-2.04 -1.96,-4.33c0.19,-2.28 1.38,-4.04 2.65,-3.94c1.27,0.11 2.15,2.04 1.96,4.33z" fill="#444443" id="svg_97"/>
      <path d="m328.9,140.66c-3.24,12.47 -15.15,28.82 -24.24,40.02c-6.19,7.61 -11.07,12.82 -11.07,12.82c-8.81,-4.53 -12.97,-20.79 -12.97,-20.79s6.05,2.4 10.97,-3.17c1.24,-1.41 2.42,-3.33 3.41,-5.94c4.87,-12.86 -0.92,-21.37 -6.26,-21.37c-1.53,0 -2.8,0.83 -3.85,2.02c-2.57,2.94 -3.67,8.08 -3.67,8.08l-8.32,-2.77c0,0 3.17,-4.95 1.19,-9.7c-1.98,-4.75 -3.96,-7.23 -3.96,-7.23c1.59,-6.82 7.52,-17.7 7.52,-17.7s-3.95,0.59 -15.63,-1.78c-11.67,-2.38 -17.52,-8.67 -17.52,-8.67c-1.48,1.04 -5.73,9.52 -5.73,9.52c-3.85,-5.3 0.29,-12.33 0.29,-12.33c-4.62,-2.39 -5.11,-9.17 -3.55,-11.13c0.27,-0.35 0.59,-0.55 0.98,-0.55c2.57,0 4.77,-1.18 4.77,-1.18s-0.75,-5.13 1.76,-6.31l0.01,0c0.41,-0.19 0.88,-0.28 1.47,-0.22c4.26,0.39 21.09,-0.99 33.95,-0.99s28.89,3.95 38.38,11.87c9.5,7.91 7.52,21.57 7.52,21.57s9.56,6.68 4.55,25.93z" fill="#FFAF3F" id="svg_98"/>
      <g id="svg_99">
       <path d="m228.48,165.59c0,0 4.45,3.16 12.47,3.46" fill="#6F6F6E" id="svg_100"/>
       <path d="m240.94,170.05c-0.01,0 -0.02,0 -0.03,0c-8.22,-0.3 -12.82,-3.51 -13.01,-3.65c-0.45,-0.32 -0.56,-0.94 -0.24,-1.39c0.32,-0.45 0.94,-0.56 1.4,-0.24c0.06,0.05 4.36,3 11.92,3.28c0.55,0.02 0.98,0.48 0.96,1.04c-0.02,0.54 -0.46,0.96 -1,0.96z" fill="#444443" id="svg_101"/>
      </g>
      <path d="m272.13,408.26c-11.12,0.58 -17.79,7.58 -21.57,13.88c-27.88,2.9 -90.82,1.53 -108.91,3.22c-21.55,2 -43.31,-0.87 -43.31,-0.87s-1.05,3.94 -2.4,7.52c-1,2.63 -4.46,7.69 -6.24,10.22c0.39,0.04 0.82,0.03 1.28,-0.03c3.14,-0.38 6.66,-9.53 6.66,-9.53l9.02,-0.31c0.89,0.01 1.92,0.02 3.04,0.02c7.65,0 19.8,-0.32 25.01,-2.25l112.38,-0.61l0.13,0c0.62,0 1.24,-0.03 1.85,-0.08c0.13,-0.01 0.27,-0.02 0.4,-0.04c0.61,-0.05 1.21,-0.13 1.81,-0.23c0.03,0 0.06,-0.01 0.09,-0.01c0.57,-0.1 1.13,-0.22 1.69,-0.36c0.12,-0.03 0.25,-0.06 0.37,-0.09c0.57,-0.15 1.14,-0.32 1.7,-0.5c0.07,-0.03 0.14,-0.05 0.2,-0.08c0.5,-0.17 1,-0.36 1.48,-0.57c0.13,-0.05 0.25,-0.1 0.37,-0.15c0.53,-0.23 1.04,-0.48 1.55,-0.74c0.1,-0.06 0.21,-0.12 0.31,-0.17c0.42,-0.23 0.83,-0.47 1.24,-0.72c0.13,-0.08 0.26,-0.16 0.39,-0.24c0.46,-0.3 0.91,-0.61 1.34,-0.93c0.14,-0.1 0.27,-0.21 0.41,-0.31c0.33,-0.26 0.65,-0.52 0.97,-0.79c0.14,-0.12 0.28,-0.24 0.42,-0.37c0.38,-0.34 0.75,-0.69 1.11,-1.06c0.17,-0.16 0.33,-0.33 0.48,-0.5c0.11,-0.11 0.21,-0.22 0.31,-0.33c0.01,-0.01 0.01,-0.02 0.02,-0.04c2.44,-2.71 4.33,-5.96 5.41,-9.62l0.99,-3.33z" fill="#F4B882" id="svg_102"/>
      <path d="m315.25,259.17c0,2.56 -0.37,5.18 -1.13,7.76l-11.43,38.46l-2.48,8.37l-49.7,-14.32l11.66,-48.85c2.21,-6.64 6.74,-11.88 12.39,-15.09c6.33,-3.6 14.08,-4.65 21.56,-2.32c11.64,3.63 19.13,14.36 19.13,25.99z" fill="#6C96D8" id="svg_103"/>
      <path d="m292.59,156.5c0,0 -1.38,6.83 -5.01,9.9c-3.62,3.06 -3.79,0 -3.79,0s3.26,-2.38 2.57,-4.16c-0.69,-1.78 -1.78,-2.08 -1.78,-2.08s1.28,-9.79 5.24,-11.67c0,0 3.65,-0.31 2.77,8.01z" fill="#E2AC76" id="svg_104"/>
      <path d="m235.32,377.34c0,0 8.45,10.28 11.83,18.8c0,0 3.16,-16.76 -11.83,-18.8z" fill="#E2AC76" id="svg_105"/>
      <path d="m221.69,145.78c0.44,1.83 1.91,5.98 4.23,7c2.32,1.02 5.07,0.18 4.75,-1.09c-0.32,-1.26 -9.68,-8.77 -8.98,-5.91z" fill="#E2AC76" id="svg_106"/>
      <path d="m277,84.6c0,0 8.73,-1.55 23.51,5.63c14.79,7.18 18.03,14.93 18.59,18.02c0.56,3.1 3.1,3.95 2.67,0c-0.42,-3.94 -2.67,-13.8 -16.61,-19.29c-13.94,-5.49 -23.37,-5.49 -28.16,-4.36z" fill="#FFCD92" id="svg_107"/>
      <path d="m316.14,119.1c0,0 5.64,3.15 6.48,13.54s-9.29,26.31 -7.46,26.87c1.83,0.56 10.98,-9.17 11.68,-22.11c0.71,-12.95 -2.58,-20.42 -5.02,-21.4s-22.44,-2.95 -26.83,-2.04c-4.39,0.91 17.2,0.62 21.15,5.14z" fill="#FFCD92" id="svg_108"/>
      <path d="m228.14,173.27c0,0 4.75,3.07 10.24,2.22c5.49,-0.84 -1.37,5.49 -5.91,4.33c-4.54,-1.16 -4.33,-6.55 -4.33,-6.55z" fill="#E2AC76" id="svg_109"/>
      <polygon fill="#E2AC76" id="svg_110" points="249.739,302.694 298.115,320.802 300.207,313.762 250.515,299.439     "/>
      <path d="m302.69,305.39l-2.48,8.37l-49.7,-14.32l11.66,-48.85c2.21,-6.64 6.74,-11.88 12.39,-15.09c-1.79,8.31 -3.37,22.33 0.42,39.26c4.76,21.35 20.69,28.49 27.71,30.63z" fill="#5681BF" id="svg_111"/>
      <path d="m296.15,176.62c2.93,2.71 5.83,3.83 8.51,4.06c-6.19,7.61 -11.07,12.82 -11.07,12.82c-8.81,-4.53 -12.97,-20.79 -12.97,-20.79s6.05,2.4 10.97,-3.17c1.42,3.12 2.96,5.59 4.56,7.08z" fill="#FF854F" id="svg_112"/>
      <path d="m320.96,113.71c-0.76,-0.13 -23.35,-3.73 -33.96,1.44c-5.4,2.63 -3.93,15.57 -2.11,29.1c-2.57,2.94 -3.67,8.08 -3.67,8.08l-8.32,-2.77c0,0 3.17,-4.95 1.19,-9.7c-1.98,-4.75 -3.96,-7.23 -3.96,-7.23c1.59,-6.82 7.52,-17.7 7.52,-17.7s-3.95,0.59 -15.63,-1.78c-11.67,-2.38 -17.52,-8.67 -17.52,-8.67c-1.48,1.04 -5.73,9.52 -5.73,9.52c-3.85,-5.3 0.29,-12.33 0.29,-12.33c-4.62,-2.39 -5.11,-9.17 -3.55,-11.13c0,0 2.13,6.59 23.25,14.41c21.12,7.81 49,-3.14 62.2,8.76z" fill="#FF854F" id="svg_113"/>
      <path d="m241.26,88.81c0,0 -0.75,-5.13 1.76,-6.31l0.01,0c1.92,3.63 6.66,8.14 10.14,8.99c4.55,1.11 -7.45,2.09 -11.91,-2.68z" fill="#FF854F" id="svg_114"/>
      <path d="m90.84,409.73c0,0 -3.76,7.64 -6.58,9.36l-6.82,3.41l-2.2,7.45c-0.58,1.97 -2.17,3.43 -4.14,3.86l4.96,-14.99l14.78,-9.09z" fill="#F4B882" id="svg_115"/>
      <path d="m91.59,427.12l-5.37,3.73l-3.06,6.63c-0.81,1.78 -2.52,2.99 -4.47,3.19l-0.21,0.02c-0.47,0.05 -0.92,-0.01 -1.34,-0.16c1.11,-0.59 2.65,-1.7 3.73,-3.65c1.84,-3.39 3,-8.25 3,-8.25s10.89,-7.57 11.2,-7.85s-3.48,6.34 -3.48,6.34z" fill="#F4B882" id="svg_116"/>
      <polygon fill="#6F6F6E" id="svg_117" points="246.233,313.763 296.036,327.813 281.801,375.712 235.263,363.397     "/>
      <path d="m241.76,324.42l-6.39,28.41c-0.4,1.75 0.69,3.49 2.43,3.9l25.46,6.04c5.57,1.32 11.17,-2.06 12.6,-7.6l2.89,-11.19c1.36,-5.25 -1.51,-10.67 -6.61,-12.51l-26.08,-9.41c-1.85,-0.67 -3.87,0.44 -4.3,2.36z" fill="#585857" id="svg_118"/>
     </g>
     <g id="svg_119">
      <path d="m160.96,357l-4.73,6.11l-1.85,2.38c0,0 -9.75,-4.95 -14.75,-8.14c-2.46,-1.58 -4.8,-4.01 -6.55,-6.07c-1.8,-2.12 -2.95,-3.86 -2.95,-3.86l5.02,-22.36l10.64,21.55l15.17,10.39z" fill="#94B9FF" id="svg_120"/>
      <polygon fill="#E2AC76" id="svg_121" points="121.943,312.094 120.671,320.565 131.621,322.28 132.302,318.093     "/>
      <path d="m156.23,363.11l-1.85,2.38c0,0 -9.75,-4.95 -14.75,-8.14c-2.46,-1.58 -4.8,-4.01 -6.55,-6.07l2.19,-10.26c0,0 4.29,13.25 20.96,22.09z" fill="#7EA9ED" id="svg_122"/>
      <path d="m130.16,434.45c0,0 -0.13,3.89 0.99,4.94c1.12,1.06 16.76,2.71 17.75,0.99c0.98,-1.71 -7.08,-5.31 -7.08,-5.31l-11.66,-0.62z" fill="#585857" id="svg_123"/>
      <path d="m99.42,433.54c0,0 -0.59,3.81 -0.46,5.79c0.13,1.98 3.46,3.56 7.7,4.88c4.24,1.32 8.33,0.26 8.92,-0.79c0.6,-1.06 -6.26,-7.65 -6.26,-7.65l-9.9,-2.23z" fill="#585857" id="svg_124"/>
      <path d="m143.94,301.31c0,6.84 -4.79,16.78 -11.64,16.78c-6.85,0 -12.55,-6.96 -12.55,-13.81c0,-6.85 5.55,-12.4 12.4,-12.4c6.85,0 11.79,2.58 11.79,9.43z" fill="#FFD19E" id="svg_125"/>
      <path d="m144.95,368c0,0 7.06,-17.07 16.64,-9.8c9.78,7.42 -8.38,23.78 -14.93,22.88c-6.54,-0.9 -1.71,-13.08 -1.71,-13.08z" fill="#444443" id="svg_126"/>
      <path d="m137.6,364.35l2.84,2.07c0,0 5.21,0.32 6.7,0.66c1.49,0.35 2.78,4.06 2.31,4.74c-0.47,0.68 -1.19,0.61 -1.19,0.61s-1.1,1.75 -1.68,2.29c-0.59,0.54 -1.33,1.33 -2.87,0.84c-1.54,-0.48 -2.63,-1.58 -2.63,-1.58s-2.28,-1.09 -2.57,-1.52c-0.29,-0.42 -0.31,-0.83 -0.31,-0.83l-2.93,-1.9l2.33,-5.38z" fill="#FFD19E" id="svg_127"/>
      <path d="m142.86,431.95c-0.04,1.56 -0.19,2.57 -0.45,2.77c-2.74,2.03 -11.93,1.4 -13.97,0.04c-0.03,-0.01 -0.05,-0.02 -0.08,-0.04c-0.6,-0.45 -1.2,-3.65 -1.73,-7.78l0,-0.02c-1.11,-8.69 -1.95,-21.5 -1.95,-21.5l-7.91,-23.42l-0.79,-2.36l-0.65,-1.92c0,0 0.03,0.62 0.08,1.68c0.03,0.79 0.08,1.83 0.13,3.04c0.32,6.64 0.83,18.38 0.83,22c0,0.43 -0.02,1 -0.07,1.7c-0.05,0.86 -0.14,1.9 -0.23,3.08l0,0.01c-0.84,9.17 -3.06,26.27 -3.06,26.27c-4.26,0.69 -8.88,-0.09 -12.01,-0.85c-2.25,-0.56 -3.73,-1.11 -3.73,-1.11l2.74,-23.17c0,0 -2.44,-15.24 -3.57,-27.91c-0.49,-5.53 -0.56,-9.1 -0.47,-11.37c0.11,-2.94 0.47,-3.71 0.47,-3.71l35.71,7.73c0,0 0.13,0.37 0.36,1.02c0.18,0.52 0.43,1.23 0.71,2.07c1.9,5.39 5.66,16.34 6.66,20.29c0.11,0.45 0.23,1.06 0.36,1.82c0.22,1.3 0.47,3.01 0.7,4.98c1.03,8.27 2.09,21.05 1.92,26.66z" fill="#0AA599" id="svg_128"/>
      <path d="m142.86,431.95c-0.04,1.56 -0.19,2.57 -0.45,2.77c-2.74,2.03 -11.93,1.4 -13.97,0.04l-1.81,-7.82l0,-0.02c-1.11,-8.7 -1.95,-21.5 -1.95,-21.5l-7.91,-23.42c-0.14,0.05 -0.28,0.1 -0.43,0.15l-0.6,-2.61l-0.41,-1.82l17.18,-1.59c0.18,0.52 0.43,1.23 0.72,2.07c-2.72,2.28 -5.88,6.17 -5.63,11.68c0.41,9.25 3.71,36.74 15.26,42.07z" fill="#15877C" id="svg_129"/>
      <path d="m119.41,381.11c0,0 -1.05,0.33 -2.64,0.89c-0.14,0.05 -0.28,0.1 -0.43,0.15c-0.25,0.09 -0.52,0.19 -0.8,0.29c-4.65,1.69 -12.07,4.74 -13.92,7.44c-2.74,4.01 1.47,19.05 1.9,21.88c0.34,2.29 -1.72,17.27 -2.52,22.89c-2.25,-0.55 -3.73,-1.11 -3.73,-1.11l2.74,-23.17c0,0 -2.44,-15.24 -3.57,-27.9c-0.49,-5.53 -0.56,-9.11 -0.47,-11.38l19.44,8.31l0.33,0.14l0.24,0.1l3.43,1.47z" fill="#15877C" id="svg_130"/>
      <path d="m120.79,295.25c0,0 -0.6,-6.57 6.28,-7.76c6.88,-1.19 16.21,5.17 16.21,5.17s4.01,0.89 5.79,3.12s1.83,6.72 -4.01,6.86c-5.84,0.15 -15.98,-5.52 -15.98,-5.52s-0.43,4.02 -1.47,5.75c-1.04,1.73 -1.79,1.78 -1.79,1.78s-0.39,-4.35 -2.52,-4.5c-2.13,-0.15 -2.08,5 -1.53,6.68c0.54,1.68 2.17,1.63 2.17,1.63s-0.8,3.95 -1.93,4.14c0,0 -5.54,-5.82 -4.74,-11.31c0.79,-5.49 3.52,-6.04 3.52,-6.04z" fill="#444443" id="svg_131"/>
      <path d="m135.27,376.12l0.64,3.18c-12.39,3.8 -45.07,-3.59 -45.07,-3.59c1.55,-8.38 5.09,-16.83 5.1,-16.83c1.24,-4.4 2.91,-10.1 4.72,-15.75c0.01,-0.03 0.01,-0.04 0.01,-0.04c1.48,-4.61 3.05,-9.19 4.56,-12.97c1.84,-4.64 3.58,-8.09 4.95,-8.99c5.35,-3.53 10.49,-3.01 10.49,-3.01l11.48,3.01c0,0 4.55,3.13 4.74,11.84c0.1,4.64 -1.25,16.3 -2.54,26.19c-0.34,2.66 -0.69,5.19 -0.99,7.42l1.91,9.54z" fill="#FFFFFF" id="svg_132"/>
      <path d="m135.27,376.12c-4.57,-0.18 -15.2,-1.42 -24.36,-8.74c-11.69,-9.33 -10.33,-23.45 -10.25,-24.25c0.01,-0.03 0.01,-0.04 0.01,-0.04c1.48,-4.62 3.05,-9.19 4.56,-12.97l28.92,30.58c-0.35,2.66 -0.49,3.65 -0.79,5.88l1.91,9.54z" fill="#ECECEC" id="svg_133"/>
      <g id="svg_134">
       <path d="m197.7,439.75c-10.13,0 -19.25,-0.68 -19.45,-0.69c-23.8,-1.83 -24.27,-5.04 -24.44,-6.24c-0.58,-4 5.53,-6.95 12.62,-10.37c4.08,-1.96 10.24,-4.93 10.42,-6.62c0.03,-0.27 -0.4,-0.64 -0.58,-0.78c-2.96,-2.32 -9,-2.98 -14.85,-3.62c-8.29,-0.91 -16.13,-1.77 -18.45,-7.07c-3.75,-8.55 1.31,-24.82 1.53,-25.51c0.24,-0.78 1.09,-1.22 1.88,-0.98c0.79,0.25 1.23,1.1 0.98,1.89c-0.05,0.15 -4.94,15.87 -1.64,23.39c1.62,3.72 8.95,4.52 16.03,5.29c6.26,0.69 12.74,1.4 16.37,4.25c1.59,1.25 1.81,2.57 1.72,3.46c-0.37,3.34 -5.81,5.97 -12.11,9.01c-4.08,1.96 -10.81,5.21 -10.96,7.06c3.17,3.03 39.14,6.32 57.97,3.6c6.45,-0.93 7.17,-2.18 7.2,-2.24l0,0c-0.02,0 -0.25,-0.76 -2.62,-2.11c-0.13,-0.08 -0.25,-0.17 -0.35,-0.28c-0.61,-0.66 -1.43,-2.19 -0.63,-3.77c1.15,-2.25 5.5,-4.9 29.84,-1.91c11.45,1.41 20.68,-0.79 27.43,-6.53c10.64,-9.07 12.01,-23.97 12.18,-28.32c0.39,-10.44 -6.06,-16.88 -6.12,-16.94c-0.6,-0.58 -0.61,-1.53 -0.03,-2.12c0.58,-0.6 1.52,-0.61 2.12,-0.03c0.3,0.29 7.47,7.39 7.02,19.2c-0.17,4.66 -1.65,20.64 -13.23,30.49c-7.41,6.31 -17.42,8.74 -29.73,7.23c-25.53,-3.14 -26.8,0.28 -26.81,0.31c-0.01,0.05 0.03,0.15 0.08,0.23c1.4,0.81 4.52,2.81 3.72,5.43c-1.33,4.31 -14.94,5.29 -27.11,5.29zm-40.92,-7.37l0.01,0l-0.01,0z" fill="#585857" id="svg_135"/>
      </g>
      <path d="m116.12,325.6l4.55,20.32l19.92,15.71l-6.8,10.36c0,0 -20.63,-12.48 -23.82,-18.37c-3.2,-5.88 -7.62,-23.42 -3.2,-29.94c2.21,-3.26 4.45,-3.24 6.13,-2.4c1.68,0.84 2.81,2.49 3.22,4.32z" fill="#94B9FF" id="svg_136"/>
      <path d="m116.3,406.14c-0.05,0.86 -0.14,1.9 -0.23,3.08l0,0.01c-1.95,1.77 -5.03,2.65 -8.79,-3.09l9.02,0z" fill="#15877C" id="svg_137"/>
      <path d="m140.94,405.29c-4.23,0.2 -6.8,-3.59 -6.8,-3.59l6.11,-1.39c0.21,1.3 0.46,3.01 0.69,4.98z" fill="#15877C" id="svg_138"/>
      <path d="m120.67,347.53l-6.8,4.75c0,0 1.57,-7.27 6.8,-4.75z" fill="#7EA9ED" id="svg_139"/>
     </g>
    </g>
    <g id="svg_140">
     <rect fill="#6F6F6E" height="8.97" id="svg_141" width="107.12" x="277.45" y="418.62"/>
     <polygon fill="#C5C5C5" id="svg_142" points="352.386,362.154 340.249,418.617 384.575,418.617 395.921,362.154    "/>
     <g id="svg_143">
      <line fill="none" id="svg_144" stroke="#FFFFFF" stroke-linecap="round" stroke-linejoin="round" stroke-miterlimit="10" x1="360.78" x2="369.8" y1="413.32" y2="369.39"/>
      <line fill="none" id="svg_145" stroke="#FFFFFF" stroke-linecap="round" stroke-linejoin="round" stroke-miterlimit="10" x1="356.13" x2="365.43" y1="370.23" y2="370.23"/>
      <line fill="none" id="svg_146" stroke="#FFFFFF" stroke-linecap="round" stroke-linejoin="round" stroke-miterlimit="10" x1="354.44" x2="363.74" y1="376.71" y2="376.71"/>
      <line fill="none" id="svg_147" stroke="#FFFFFF" stroke-linecap="round" stroke-linejoin="round" stroke-miterlimit="10" x1="352.75" x2="362.05" y1="383.19" y2="383.19"/>
      <line fill="none" id="svg_148" stroke="#FFFFFF" stroke-linecap="round" stroke-linejoin="round" stroke-miterlimit="10" x1="351.06" x2="360.36" y1="389.67" y2="389.67"/>
      <line fill="none" id="svg_149" stroke="#FFFFFF" stroke-linecap="round" stroke-linejoin="round" stroke-miterlimit="10" x1="349.38" x2="358.67" y1="396.14" y2="396.14"/>
      <line fill="none" id="svg_150" stroke="#FFFFFF" stroke-linecap="round" stroke-linejoin="round" stroke-miterlimit="10" x1="347.69" x2="356.98" y1="402.62" y2="402.62"/>
      <line fill="none" id="svg_151" stroke="#FFFFFF" stroke-linecap="round" stroke-linejoin="round" stroke-miterlimit="10" x1="346" x2="355.29" y1="409.1" y2="409.1"/>
      <line fill="none" id="svg_152" stroke="#FFFFFF" stroke-linecap="round" stroke-linejoin="round" stroke-miterlimit="10" x1="376.41" x2="385.7" y1="370.23" y2="370.23"/>
      <line fill="none" id="svg_153" stroke="#FFFFFF" stroke-linecap="round" stroke-linejoin="round" stroke-miterlimit="10" x1="374.72" x2="384.01" y1="376.71" y2="376.71"/>
      <line fill="none" id="svg_154" stroke="#FFFFFF" stroke-linecap="round" stroke-linejoin="round" stroke-miterlimit="10" x1="373.03" x2="382.32" y1="383.19" y2="383.19"/>
      <line fill="none" id="svg_155" stroke="#FFFFFF" stroke-linecap="round" stroke-linejoin="round" stroke-miterlimit="10" x1="371.34" x2="380.63" y1="389.67" y2="389.67"/>
      <line fill="none" id="svg_156" stroke="#FFFFFF" stroke-linecap="round" stroke-linejoin="round" stroke-miterlimit="10" x1="369.65" x2="378.95" y1="396.14" y2="396.14"/>
      <line fill="none" id="svg_157" stroke="#FFFFFF" stroke-linecap="round" stroke-linejoin="round" stroke-miterlimit="10" x1="367.96" x2="377.26" y1="402.62" y2="402.62"/>
      <line fill="none" id="svg_158" stroke="#FFFFFF" stroke-linecap="round" stroke-linejoin="round" stroke-miterlimit="10" x1="366.27" x2="375.57" y1="409.1" y2="409.1"/>
     </g>
    </g>
   </g>
  </g>
 </g>
</svg>